<svg xmlns="http://www.w3.org/2000/svg" width="2050" height="2050" viewBox="0 0 2050 2050" version="1.1"><g x="0" y="0"><g x="0" y="0" clip-path="url(#M+938+1004.5+Q+924+978,+888.5+940+Q+853+902,+776.5+820+Q+700+738,+653+689+L+480+513+L+373+398+Q+302+327,+282+303+Q+262+279,+261+253.5+Q+260+228,+273+205+Q+288+178,+323+159.5+Q+358+141,+392+141+Q+443+142,+482+181+Q+521+220,+594+317+L+741+515+Q+859+675,+1045+866+Q+1125.5+1065.25,+938+1004.5+Z)"><defs><clipPath id="M+938+1004.5+Q+924+978,+888.5+940+Q+853+902,+776.5+820+Q+700+738,+653+689+L+480+513+L+373+398+Q+302+327,+282+303+Q+262+279,+261+253.5+Q+260+228,+273+205+Q+288+178,+323+159.5+Q+358+141,+392+141+Q+443+142,+482+181+Q+521+220,+594+317+L+741+515+Q+859+675,+1045+866+Q+1125.5+1065.25,+938+1004.5+Z"><path d="M 938 1004.5 Q 924 978, 888.5 940 Q 853 902, 776.5 820 Q 700 738, 653 689 L 480 513 L 373 398 Q 302 327, 282 303 Q 262 279, 261 253.5 Q 260 228, 273 205 Q 288 178, 323 159.5 Q 358 141, 392 141 Q 443 142, 482 181 Q 521 220, 594 317 L 741 515 Q 859 675, 1045 866 Q 1125.5 1065.25, 938 1004.5 Z" fill="#F00"></path></clipPath></defs><g x="0" y="0"><path d="M370 230 L985 930" fill="transparent" stroke="black" stroke-width="250" stroke-linecap="round"></path></g></g></g></svg>