<svg xmlns="http://www.w3.org/2000/svg" width="2050" height="2050" viewBox="0 0 2050 2050" version="1.1"><g x="0" y="0"><g x="0" y="0" clip-path="url(#M+375+594+L+374+900+L+385+1234+Q+388+1349,+393+1414+L+402+1549+L+407+1648+Q+408+1687,+394+1739+Q+380+1791,+338+1791+Q+279+1792,+247+1696.5+Q+215+1601,+210+1551+Q+205+1501,+203+1427+L+197+1281+L+185+692+Q+183+625,+181.5+587+Q+180+549,+178.5+516.5+Q+177+484,+175+469+L+168+432+Q+168+421,+170+412+Q+173+403,+197+381.5+Q+221+360,+258+360+Q+277+361,+359+401+L+375+594+Z)"><defs><clipPath id="M+375+594+L+374+900+L+385+1234+Q+388+1349,+393+1414+L+402+1549+L+407+1648+Q+408+1687,+394+1739+Q+380+1791,+338+1791+Q+279+1792,+247+1696.5+Q+215+1601,+210+1551+Q+205+1501,+203+1427+L+197+1281+L+185+692+Q+183+625,+181.5+587+Q+180+549,+178.5+516.5+Q+177+484,+175+469+L+168+432+Q+168+421,+170+412+Q+173+403,+197+381.5+Q+221+360,+258+360+Q+277+361,+359+401+L+375+594+Z"><path d="M 375 594 L 374 900 L 385 1234 Q 388 1349, 393 1414 L 402 1549 L 407 1648 Q 408 1687, 394 1739 Q 380 1791, 338 1791 Q 279 1792, 247 1696.5 Q 215 1601, 210 1551 Q 205 1501, 203 1427 L 197 1281 L 185 692 Q 183 625, 181.5 587 Q 180 549, 178.5 516.5 Q 177 484, 175 469 L 168 432 Q 168 421, 170 412 Q 173 403, 197 381.5 Q 221 360, 258 360 Q 277 361, 359 401 L 375 594 Z" fill="#F00"></path></clipPath></defs><g x="0" y="0"><path d="M265 440 L330 1700" fill="transparent" stroke="black" stroke-width="250" stroke-linecap="round"></path></g></g></g></svg>